<svg width="180" height="234" viewBox="0 0 180 234" fill="none" xmlns="http://www.w3.org/2000/svg">
<g clip-path="url(#clip0_6949_33793)">
<rect width="180" height="234" rx="15" fill="white"/>
<rect x="14" y="85" width="26.9512" height="26.9512" rx="13.4756" fill="#EBF0F7"/>
<path d="M30.8765 93.9842C31.9674 94.9467 32.6091 96.2943 32.6091 97.8344C32.6091 100.658 30.299 102.968 27.4755 102.968C24.6521 102.968 22.342 100.658 22.342 97.8344C22.342 96.2943 23.0478 94.9467 24.0746 93.9842H30.8765ZM31.3257 92.7008H23.6254L23.2404 93.0217C21.8286 94.2409 21.0586 95.9734 21.0586 97.8344C21.0586 101.364 23.9462 104.251 27.4755 104.251C31.0049 104.251 33.8925 101.364 33.8925 97.8344C33.8925 95.9734 33.1224 94.2409 31.7107 93.0217L31.3257 92.7008ZM28.1172 95.5884C28.1172 96.1018 28.5664 96.551 29.0798 96.551C29.5931 96.551 30.0423 96.1018 30.0423 95.5884C30.0423 95.0751 29.5931 94.6259 29.0798 94.6259C28.5664 94.6259 28.1172 95.0751 28.1172 95.5884ZM24.9088 95.5884C24.9088 96.1018 25.3579 96.551 25.8713 96.551C26.3847 96.551 26.8338 96.1018 26.8338 95.5884C26.8338 95.0751 26.3847 94.6259 25.8713 94.6259C25.3579 94.6259 24.9088 95.0751 24.9088 95.5884ZM24.2671 99.1177C24.9729 99.1177 25.5505 98.5402 25.5505 97.8344C25.5505 97.1285 24.9729 96.551 24.2671 96.551C23.5612 96.551 22.9837 97.1285 22.9837 97.8344C22.9837 98.5402 23.5612 99.1177 24.2671 99.1177ZM27.1547 100.401C27.1547 99.6953 26.5772 99.1177 25.8713 99.1177C25.1654 99.1177 24.5879 99.6953 24.5879 100.401C24.5879 101.107 25.1654 101.685 25.8713 101.685C26.5772 101.685 27.1547 101.107 27.1547 100.401ZM27.4755 99.1177C28.1814 99.1177 28.7589 98.5402 28.7589 97.8344C28.7589 97.1285 28.1814 96.551 27.4755 96.551C26.7697 96.551 26.1921 97.1285 26.1921 97.8344C26.1921 98.5402 26.7697 99.1177 27.4755 99.1177ZM30.3632 100.401C30.3632 99.6953 29.7856 99.1177 29.0798 99.1177C28.3739 99.1177 27.7964 99.6953 27.7964 100.401C27.7964 101.107 28.3739 101.685 29.0798 101.685C29.7856 101.685 30.3632 101.107 30.3632 100.401ZM31.9674 97.8344C31.9674 97.1285 31.3899 96.551 30.684 96.551C29.9781 96.551 29.4006 97.1285 29.4006 97.8344C29.4006 98.5402 29.9781 99.1177 30.684 99.1177C31.3899 99.1177 31.9674 98.5402 31.9674 97.8344Z" fill="#252834"/>
<path d="M52.7584 95.2886V96.418H50.7358V102.476H49.5551V96.418H47.5222V95.2886H52.7584ZM56.2977 97.342H57.4785L55.5072 102.64C55.0144 103.968 54.1793 104.597 53.002 104.529V103.492C53.3511 103.513 53.6317 103.437 53.8439 103.266C54.0561 103.102 54.2306 102.842 54.3675 102.486L54.4189 102.383L52.2422 97.342H53.4537L54.9835 101.069L56.2977 97.342ZM61.0774 97.2086C61.7824 97.2086 62.3847 97.4721 62.8844 97.9991C63.3841 98.5193 63.6339 99.1559 63.6339 99.9088C63.6339 100.669 63.3841 101.309 62.8844 101.829C62.3847 102.349 61.7824 102.609 61.0774 102.609C60.2971 102.609 59.6982 102.322 59.2807 101.747V104.529H58.1718V97.342H59.2807V98.0813C59.6982 97.4995 60.2971 97.2086 61.0774 97.2086ZM59.7427 101.09C60.0507 101.398 60.4374 101.552 60.9029 101.552C61.3683 101.552 61.755 101.398 62.063 101.09C62.3711 100.775 62.5251 100.381 62.5251 99.9088C62.5251 99.4365 62.3711 99.0464 62.063 98.7384C61.755 98.4235 61.3683 98.2661 60.9029 98.2661C60.4374 98.2661 60.0507 98.4235 59.7427 98.7384C59.4347 99.0464 59.2807 99.4365 59.2807 99.9088C59.2807 100.381 59.4347 100.775 59.7427 101.09ZM65.5116 100.381C65.5937 100.771 65.7819 101.072 66.0763 101.285C66.3706 101.49 66.7299 101.593 67.1543 101.593C67.743 101.593 68.1845 101.38 68.4788 100.956L69.3925 101.49C68.886 102.236 68.1365 102.609 67.1441 102.609C66.309 102.609 65.6348 102.356 65.1214 101.849C64.6081 101.336 64.3514 100.689 64.3514 99.9088C64.3514 99.1422 64.6047 98.5022 65.1112 97.9889C65.6177 97.4687 66.2679 97.2086 67.0619 97.2086C67.8148 97.2086 68.4309 97.4721 68.91 97.9991C69.396 98.5262 69.639 99.1662 69.639 99.9191C69.639 100.035 69.6253 100.189 69.5979 100.381H65.5116ZM65.5013 99.4776H68.5198C68.4446 99.0601 68.27 98.7452 67.9962 98.533C67.7293 98.3208 67.4144 98.2147 67.0516 98.2147C66.641 98.2147 66.2987 98.3277 66.0249 98.5536C65.7511 98.7794 65.5766 99.0874 65.5013 99.4776ZM72.8529 102.476V101.552L75.3581 98.995C75.9672 98.3859 76.2718 97.8588 76.2718 97.4139C76.2718 97.0648 76.1657 96.7945 75.9535 96.6028C75.7482 96.4043 75.4847 96.3051 75.163 96.3051C74.5606 96.3051 74.1157 96.6028 73.8283 97.1983L72.8323 96.6131C73.0582 96.1339 73.3765 95.7712 73.7872 95.5248C74.1979 95.2783 74.653 95.1551 75.1527 95.1551C75.7824 95.1551 76.3232 95.3536 76.7749 95.7506C77.2267 96.1476 77.4525 96.6884 77.4525 97.3728C77.4525 98.1052 77.0453 98.8855 76.2308 99.7137L74.6086 101.336H77.586V102.476H72.8529Z" fill="#252834"/>
<rect x="136.841" y="88.8502" width="30.1596" height="19.2508" rx="9.62541" fill="#252834"/>
<rect x="149.033" y="90.1337" width="16.684" height="16.684" rx="8.34202" fill="white"/>
<rect x="14" y="119.651" width="26.9512" height="26.9512" rx="13.4756" fill="#EBF0F7"/>
<path d="M23.6254 131.202C23.6254 130.849 23.9141 130.561 24.2671 130.561C24.62 130.561 24.9088 130.849 24.9088 131.202C24.9088 131.555 24.62 131.844 24.2671 131.844C23.9141 131.844 23.6254 131.555 23.6254 131.202ZM30.684 131.844C31.0369 131.844 31.3257 131.555 31.3257 131.202C31.3257 130.849 31.0369 130.561 30.684 130.561C30.3311 130.561 30.0423 130.849 30.0423 131.202C30.0423 131.555 30.3311 131.844 30.684 131.844ZM33.8925 131.799V132.486C33.8925 134.017 33.284 135.486 32.2009 136.569C31.1179 137.653 29.6489 138.261 28.1172 138.261H26.8338C23.6446 138.261 21.0586 135.694 21.0586 132.486V131.799C21.0586 129.694 22.7591 127.994 24.8638 127.994H30.0872C32.192 127.994 33.8925 129.694 33.8925 131.799ZM29.0798 131.202C29.0798 131.628 29.2488 132.036 29.5496 132.337C29.8505 132.638 30.2585 132.807 30.684 132.807C31.1095 132.807 31.5175 132.638 31.8184 132.337C32.1192 132.036 32.2882 131.628 32.2882 131.202C32.2882 130.777 32.1192 130.369 31.8184 130.068C31.5175 129.767 31.1095 129.598 30.684 129.598C30.2585 129.598 29.8505 129.767 29.5496 130.068C29.2488 130.369 29.0798 130.777 29.0798 131.202ZM22.6628 131.202C22.6628 131.628 22.8318 132.036 23.1327 132.337C23.4336 132.638 23.8416 132.807 24.2671 132.807C24.6925 132.807 25.1006 132.638 25.4014 132.337C25.7023 132.036 25.8713 131.628 25.8713 131.202C25.8713 130.777 25.7023 130.369 25.4014 130.068C25.1006 129.767 24.6925 129.598 24.2671 129.598C23.8416 129.598 23.4336 129.767 23.1327 130.068C22.8318 130.369 22.6628 130.777 22.6628 131.202ZM25.5505 136.336C25.5505 135.983 25.2617 135.694 24.9088 135.694C24.5558 135.694 24.2671 135.983 24.2671 136.336C24.2671 136.689 24.5558 136.978 24.9088 136.978C25.2617 136.978 25.5505 136.689 25.5505 136.336ZM28.4381 136.336C28.4381 135.803 28.0081 135.373 27.4755 135.373C26.9429 135.373 26.513 135.803 26.513 136.336C26.513 136.869 26.9429 137.298 27.4755 137.298C28.0081 137.298 28.4381 136.869 28.4381 136.336ZM30.684 136.336C30.684 135.983 30.3952 135.694 30.0423 135.694C29.6894 135.694 29.4006 135.983 29.4006 136.336C29.4006 136.689 29.6894 136.978 30.0423 136.978C30.3952 136.978 30.684 136.689 30.684 136.336ZM32.5898 132.909C32.115 133.448 31.4412 133.769 30.684 133.769C29.2659 133.769 28.1172 132.621 28.1172 131.202C28.1172 130.432 28.4637 129.746 29.0028 129.277H25.9483C26.4873 129.746 26.8338 130.432 26.8338 131.202C26.8338 132.621 25.6852 133.769 24.2671 133.769C23.9062 133.772 23.549 133.696 23.22 133.548C22.8911 133.399 22.5981 133.182 22.3612 132.909C22.4639 133.974 22.9388 134.937 23.651 135.656C24.7227 134.879 26.0381 134.411 27.4755 134.411C28.9129 134.411 30.2284 134.879 31.3 135.656C32.0336 134.916 32.4892 133.946 32.5898 132.909Z" fill="#252834"/>
<path d="M52.7584 129.94V131.069H50.7358V137.127H49.5551V131.069H47.5222V129.94H52.7584ZM56.2977 131.994H57.4785L55.5072 137.291C55.0144 138.619 54.1793 139.249 53.002 139.18V138.144C53.3511 138.164 53.6317 138.089 53.8439 137.918C54.0561 137.753 54.2306 137.493 54.3675 137.137L54.4189 137.035L52.2422 131.994H53.4537L54.9835 135.72L56.2977 131.994ZM61.0774 131.86C61.7824 131.86 62.3847 132.124 62.8844 132.651C63.3841 133.171 63.6339 133.807 63.6339 134.56C63.6339 135.32 63.3841 135.96 62.8844 136.48C62.3847 137 61.7824 137.261 61.0774 137.261C60.2971 137.261 59.6982 136.973 59.2807 136.398V139.18H58.1718V131.994H59.2807V132.733C59.6982 132.151 60.2971 131.86 61.0774 131.86ZM59.7427 135.741C60.0507 136.049 60.4374 136.203 60.9029 136.203C61.3683 136.203 61.755 136.049 62.063 135.741C62.3711 135.426 62.5251 135.033 62.5251 134.56C62.5251 134.088 62.3711 133.698 62.063 133.39C61.755 133.075 61.3683 132.918 60.9029 132.918C60.4374 132.918 60.0507 133.075 59.7427 133.39C59.4347 133.698 59.2807 134.088 59.2807 134.56C59.2807 135.033 59.4347 135.426 59.7427 135.741ZM65.5116 135.033C65.5937 135.423 65.7819 135.724 66.0763 135.936C66.3706 136.141 66.7299 136.244 67.1543 136.244C67.743 136.244 68.1845 136.032 68.4788 135.608L69.3925 136.141C68.886 136.888 68.1365 137.261 67.1441 137.261C66.309 137.261 65.6348 137.007 65.1214 136.501C64.6081 135.987 64.3514 135.341 64.3514 134.56C64.3514 133.794 64.6047 133.154 65.1112 132.64C65.6177 132.12 66.2679 131.86 67.0619 131.86C67.8148 131.86 68.4309 132.124 68.91 132.651C69.396 133.178 69.639 133.818 69.639 134.571C69.639 134.687 69.6253 134.841 69.5979 135.033H65.5116ZM65.5013 134.129H68.5198C68.4446 133.712 68.27 133.397 67.9962 133.185C67.7293 132.972 67.4144 132.866 67.0516 132.866C66.641 132.866 66.2987 132.979 66.0249 133.205C65.7511 133.431 65.5766 133.739 65.5013 134.129ZM74.5572 129.94H75.5839V137.127H74.4032V131.203L72.9556 131.614L72.6681 130.607L74.5572 129.94Z" fill="#252834"/>
<rect x="136.841" y="123.502" width="30.1596" height="19.2508" rx="9.62541" fill="#D7E0EF"/>
<g filter="url(#filter0_d_6949_33793)">
<rect x="138.124" y="124.785" width="16.684" height="16.684" rx="8.34202" fill="white"/>
</g>
<rect x="14" y="154.303" width="26.9512" height="26.9512" rx="13.4756" fill="#EBF0F7"/>
<g clip-path="url(#clip1_6949_33793)">
<path d="M24.5879 172.911C24.5879 173.425 24.1387 173.874 23.6254 173.874C23.112 173.874 22.6628 173.425 22.6628 172.911C22.6628 172.398 23.112 171.949 23.6254 171.949C24.1387 171.949 24.5879 172.398 24.5879 172.911ZM31.3257 171.949C30.8123 171.949 30.3632 172.398 30.3632 172.911C30.3632 173.425 30.8123 173.874 31.3257 173.874C31.8391 173.874 32.2882 173.425 32.2882 172.911C32.2882 172.398 31.8391 171.949 31.3257 171.949ZM33.8925 172.911C33.8925 174.323 32.7374 175.478 31.3257 175.478H23.6254C22.2136 175.478 21.0586 174.323 21.0586 172.911C21.0586 171.499 22.2136 170.344 23.6254 170.344H23.8179C22.5345 169.318 21.7003 167.649 21.7003 165.853C21.7003 162.644 24.2671 160.077 27.4755 160.077C30.684 160.077 33.2508 162.644 33.2508 165.853C33.2508 167.649 32.4166 169.318 31.1332 170.344H31.3257C32.7374 170.344 33.8925 171.499 33.8925 172.911ZM27.4755 170.344C29.9781 170.344 31.9674 168.355 31.9674 165.853C31.9674 163.35 29.9781 161.361 27.4755 161.361C24.9729 161.361 22.9837 163.35 22.9837 165.853C22.9837 168.355 24.9729 170.344 27.4755 170.344ZM32.6091 172.911C32.6091 172.205 32.0316 171.628 31.3257 171.628H23.6254C22.9195 171.628 22.342 172.205 22.342 172.911C22.342 173.617 22.9195 174.195 23.6254 174.195H31.3257C32.0316 174.195 32.6091 173.617 32.6091 172.911ZM28.0531 164.12C28.0531 163.478 28.5664 162.965 29.2081 162.965C29.8498 162.965 30.3632 163.478 30.3632 164.12C30.3632 164.762 29.8498 165.275 29.2081 165.275C28.5664 165.275 28.0531 164.762 28.0531 164.12ZM24.5879 164.12C24.5879 163.478 25.1013 162.965 25.743 162.965C26.3847 162.965 26.898 163.478 26.898 164.12C26.898 164.762 26.3847 165.275 25.743 165.275C25.1013 165.275 24.5879 164.762 24.5879 164.12ZM25.743 166.623C25.743 167.008 25.4221 167.328 25.0371 167.328C24.6521 167.328 24.3312 167.008 24.3312 166.623C24.3312 166.238 24.5879 165.853 24.9729 165.853C25.4221 165.853 25.743 166.238 25.743 166.623ZM28.6306 168.227C28.6306 168.868 28.1172 169.382 27.4755 169.382C26.8338 169.382 26.3205 168.868 26.3205 168.227C26.3205 167.585 26.8338 167.072 27.4755 167.072C28.1172 167.072 28.6306 167.585 28.6306 168.227ZM30.684 166.623C30.684 167.008 30.3632 167.328 29.9781 167.328C29.5931 167.328 29.2723 167.008 29.2723 166.623C29.2723 166.238 29.529 165.853 29.9781 165.853C30.3632 165.853 30.684 166.238 30.684 166.623Z" fill="#252834"/>
</g>
<path d="M51.4853 171.912C50.4038 171.912 49.5071 171.556 48.7953 170.844C48.0834 170.126 47.7275 169.239 47.7275 168.185C47.7275 167.131 48.0834 166.248 48.7953 165.536C49.5071 164.817 50.4038 164.458 51.4853 164.458C52.1355 164.458 52.7344 164.612 53.282 164.92C53.8364 165.228 54.2677 165.646 54.5757 166.173L53.549 166.768C53.3573 166.412 53.0767 166.132 52.7071 165.926C52.3443 165.714 51.937 165.608 51.4853 165.608C50.7187 165.608 50.0958 165.851 49.6167 166.337C49.1444 166.823 48.9082 167.439 48.9082 168.185C48.9082 168.931 49.1444 169.547 49.6167 170.033C50.0958 170.519 50.7187 170.762 51.4853 170.762C51.937 170.762 52.3477 170.659 52.7173 170.454C53.0869 170.242 53.3642 169.958 53.549 169.602L54.5757 170.187C54.2745 170.714 53.8467 171.135 53.2923 171.45C52.7447 171.758 52.1424 171.912 51.4853 171.912ZM58.9049 171.912C57.8234 171.912 56.9267 171.556 56.2149 170.844C55.503 170.126 55.1471 169.239 55.1471 168.185C55.1471 167.131 55.503 166.248 56.2149 165.536C56.9267 164.817 57.8234 164.458 58.9049 164.458C59.5551 164.458 60.154 164.612 60.7016 164.92C61.256 165.228 61.6872 165.646 61.9953 166.173L60.9685 166.768C60.7769 166.412 60.4963 166.132 60.1266 165.926C59.7639 165.714 59.3566 165.608 58.9049 165.608C58.1383 165.608 57.5154 165.851 57.0362 166.337C56.564 166.823 56.3278 167.439 56.3278 168.185C56.3278 168.931 56.564 169.547 57.0362 170.033C57.5154 170.519 58.1383 170.762 58.9049 170.762C59.3566 170.762 59.7673 170.659 60.1369 170.454C60.5065 170.242 60.7837 169.958 60.9685 169.602L61.9953 170.187C61.6941 170.714 61.2663 171.135 60.7119 171.45C60.1643 171.758 59.562 171.912 58.9049 171.912ZM65.3684 171.912C64.6771 171.912 64.0884 171.755 63.6025 171.44C63.1233 171.125 62.7879 170.694 62.5963 170.146L63.6127 169.551C63.9002 170.358 64.4957 170.762 65.3992 170.762C65.8441 170.762 66.1761 170.677 66.3951 170.505C66.621 170.327 66.7339 170.098 66.7339 169.818C66.7339 169.523 66.6141 169.301 66.3746 169.15C66.135 168.993 65.7106 168.822 65.1015 168.637C64.7592 168.534 64.482 168.438 64.2698 168.349C64.0576 168.26 63.8318 168.137 63.5922 167.98C63.3595 167.815 63.1849 167.614 63.0686 167.374C62.9522 167.134 62.894 166.854 62.894 166.532C62.894 165.896 63.1199 165.392 63.5717 165.023C64.0234 164.646 64.5676 164.458 65.2041 164.458C65.7791 164.458 66.2822 164.598 66.7134 164.879C67.1446 165.16 67.4766 165.546 67.7093 166.039L66.7134 166.614C66.4122 165.943 65.9091 165.608 65.2041 165.608C64.8619 165.608 64.5881 165.69 64.3828 165.854C64.1774 166.012 64.0747 166.227 64.0747 166.501C64.0747 166.768 64.1774 166.98 64.3828 167.138C64.5949 167.288 64.9748 167.449 65.5224 167.62C65.7962 167.709 65.9947 167.778 66.1179 167.826C66.248 167.867 66.4259 167.935 66.6518 168.031C66.8845 168.127 67.0591 168.223 67.1754 168.319C67.2918 168.414 67.415 168.534 67.545 168.678C67.6819 168.822 67.7778 168.986 67.8325 169.171C67.8873 169.356 67.9146 169.564 67.9146 169.797C67.9146 170.447 67.6785 170.964 67.2062 171.347C66.7408 171.724 66.1282 171.912 65.3684 171.912ZM70.2458 164.592H71.2726V171.779H70.0918V165.854L68.6442 166.265L68.3567 165.259L70.2458 164.592Z" fill="#252834"/>
<rect x="136.841" y="158.153" width="30.1596" height="19.2508" rx="9.62541" fill="#252834"/>
<rect x="149.033" y="159.437" width="16.684" height="16.684" rx="8.34202" fill="white"/>
<rect x="14" y="188.954" width="26.9512" height="26.9512" rx="13.4756" fill="#EBF0F7"/>
<path d="M24.5879 200.826C23.6895 200.826 22.9837 201.532 22.9837 202.43C22.9837 203.329 23.6895 204.035 24.5879 204.035C25.4863 204.035 26.1921 203.329 26.1921 202.43C26.1921 201.532 25.4863 200.826 24.5879 200.826ZM30.3632 200.826C29.4648 200.826 28.7589 201.532 28.7589 202.43C28.7589 203.329 29.4648 204.035 30.3632 204.035C31.2615 204.035 31.9674 203.329 31.9674 202.43C31.9674 201.532 31.2615 200.826 30.3632 200.826ZM27.4755 197.297C30.299 197.297 32.6091 199.607 32.6091 202.43C32.6091 205.254 30.299 207.564 27.4755 207.564C24.6521 207.564 22.342 205.254 22.342 202.43C22.342 199.607 24.6521 197.297 27.4755 197.297ZM27.4755 196.013C23.9462 196.013 21.0586 198.901 21.0586 202.43C21.0586 205.96 23.9462 208.847 27.4755 208.847C31.0049 208.847 33.8925 205.96 33.8925 202.43C33.8925 198.901 31.0049 196.013 27.4755 196.013ZM27.4755 197.939C26.5772 197.939 25.8713 198.644 25.8713 199.543C25.8713 200.441 26.5772 201.147 27.4755 201.147C28.3739 201.147 29.0798 200.441 29.0798 199.543C29.0798 198.644 28.3739 197.939 27.4755 197.939ZM28.4381 199.543C28.4381 199.671 28.3739 199.799 28.3097 199.928L27.9247 199.543L28.3097 199.158C28.3739 199.286 28.4381 199.414 28.4381 199.543ZM27.8606 198.709L27.4755 199.094L27.0905 198.709C27.2189 198.644 27.3472 198.58 27.4755 198.58C27.6039 198.58 27.7322 198.644 27.8606 198.709ZM26.6413 199.928C26.5772 199.799 26.513 199.671 26.513 199.543C26.513 199.414 26.5772 199.286 26.6413 199.158L27.0263 199.543L26.6413 199.928ZM27.0905 200.377L27.4755 199.992L27.8606 200.377C27.7322 200.441 27.6039 200.505 27.4755 200.505C27.3472 200.505 27.2189 200.441 27.0905 200.377ZM27.4755 203.714C26.5772 203.714 25.8713 204.42 25.8713 205.318C25.8713 206.216 26.5772 206.922 27.4755 206.922C28.3739 206.922 29.0798 206.216 29.0798 205.318C29.0798 204.42 28.3739 203.714 27.4755 203.714ZM28.4381 205.318C28.4381 205.446 28.3739 205.575 28.3097 205.703L27.9247 205.318L28.3097 204.933C28.3739 205.061 28.4381 205.19 28.4381 205.318ZM27.8606 204.484L27.4755 204.869L27.0905 204.484C27.2189 204.42 27.3472 204.355 27.4755 204.355C27.6039 204.355 27.7322 204.42 27.8606 204.484ZM26.6413 205.703C26.5772 205.575 26.513 205.446 26.513 205.318C26.513 205.19 26.5772 205.061 26.6413 204.933L27.0263 205.318L26.6413 205.703ZM27.0905 206.152L27.4755 205.767L27.8606 206.152C27.7322 206.216 27.6039 206.281 27.4755 206.281C27.3472 206.281 27.2189 206.216 27.0905 206.152Z" fill="#252834"/>
<path d="M52.7584 199.243V200.372H50.7358V206.43H49.5551V200.372H47.5222V199.243H52.7584ZM56.2977 201.297H57.4785L55.5072 206.594C55.0144 207.922 54.1793 208.552 53.002 208.483V207.446C53.3511 207.467 53.6317 207.392 53.8439 207.221C54.0561 207.056 54.2306 206.796 54.3675 206.44L54.4189 206.338L52.2422 201.297H53.4537L54.9835 205.023L56.2977 201.297ZM61.0774 201.163C61.7824 201.163 62.3847 201.427 62.8844 201.954C63.3841 202.474 63.6339 203.11 63.6339 203.863C63.6339 204.623 63.3841 205.263 62.8844 205.783C62.3847 206.303 61.7824 206.564 61.0774 206.564C60.2971 206.564 59.6982 206.276 59.2807 205.701V208.483H58.1718V201.297H59.2807V202.036C59.6982 201.454 60.2971 201.163 61.0774 201.163ZM59.7427 205.044C60.0507 205.352 60.4374 205.506 60.9029 205.506C61.3683 205.506 61.755 205.352 62.063 205.044C62.3711 204.729 62.5251 204.336 62.5251 203.863C62.5251 203.391 62.3711 203.001 62.063 202.693C61.755 202.378 61.3683 202.221 60.9029 202.221C60.4374 202.221 60.0507 202.378 59.7427 202.693C59.4347 203.001 59.2807 203.391 59.2807 203.863C59.2807 204.336 59.4347 204.729 59.7427 205.044ZM65.5116 204.336C65.5937 204.726 65.7819 205.027 66.0763 205.239C66.3706 205.444 66.7299 205.547 67.1543 205.547C67.743 205.547 68.1845 205.335 68.4788 204.911L69.3925 205.444C68.886 206.19 68.1365 206.564 67.1441 206.564C66.309 206.564 65.6348 206.31 65.1214 205.804C64.6081 205.29 64.3514 204.644 64.3514 203.863C64.3514 203.097 64.6047 202.457 65.1112 201.943C65.6177 201.423 66.2679 201.163 67.0619 201.163C67.8148 201.163 68.4309 201.427 68.91 201.954C69.396 202.481 69.639 203.121 69.639 203.874C69.639 203.99 69.6253 204.144 69.5979 204.336H65.5116ZM65.5013 203.432H68.5198C68.4446 203.015 68.27 202.7 67.9962 202.487C67.7293 202.275 67.4144 202.169 67.0516 202.169C66.641 202.169 66.2987 202.282 66.0249 202.508C65.7511 202.734 65.5766 203.042 65.5013 203.432ZM75.9638 202.179C76.484 202.303 76.905 202.546 77.2267 202.908C77.5552 203.264 77.7195 203.713 77.7195 204.253C77.7195 204.972 77.4765 205.537 76.9905 205.947C76.5046 206.358 75.9091 206.564 75.2041 206.564C74.6565 206.564 74.1637 206.437 73.7256 206.184C73.2944 205.93 72.9829 205.561 72.7913 205.075L73.7975 204.49C74.0096 205.106 74.4785 205.414 75.2041 205.414C75.6147 205.414 75.9399 205.311 76.1794 205.106C76.419 204.893 76.5388 204.609 76.5388 204.253C76.5388 203.898 76.419 203.617 76.1794 203.412C75.9399 203.206 75.6147 203.104 75.2041 203.104H74.9371L74.4648 202.395L76.0152 200.352H73.0069V199.243H77.4217V200.249L75.9638 202.179Z" fill="#252834"/>
<rect x="136.841" y="192.805" width="30.1596" height="19.2508" rx="9.62541" fill="#D7E0EF"/>
<g filter="url(#filter1_d_6949_33793)">
<rect x="138.124" y="194.088" width="16.684" height="16.684" rx="8.34202" fill="white"/>
</g>
<rect x="14" y="223.606" width="26.9512" height="26.9512" rx="13.4756" fill="#EBF0F7"/>
<path d="M30.8765 232.59C31.9674 233.552 32.6091 234.9 32.6091 236.44C32.6091 239.264 30.299 241.574 27.4755 241.574C24.6521 241.574 22.342 239.264 22.342 236.44C22.342 234.9 23.0478 233.552 24.0746 232.59H30.8765ZM31.3257 231.307H23.6254L23.2404 231.627C21.8286 232.847 21.0586 234.579 21.0586 236.44C21.0586 239.969 23.9462 242.857 27.4755 242.857C31.0049 242.857 33.8925 239.969 33.8925 236.44C33.8925 234.579 33.1224 232.847 31.7107 231.627L31.3257 231.307ZM28.1172 234.194C28.1172 234.707 28.5664 235.157 29.0798 235.157C29.5931 235.157 30.0423 234.707 30.0423 234.194C30.0423 233.681 29.5931 233.232 29.0798 233.232C28.5664 233.232 28.1172 233.681 28.1172 234.194ZM24.9088 234.194C24.9088 234.707 25.3579 235.157 25.8713 235.157C26.3847 235.157 26.8338 234.707 26.8338 234.194C26.8338 233.681 26.3847 233.232 25.8713 233.232C25.3579 233.232 24.9088 233.681 24.9088 234.194ZM24.2671 237.723C24.9729 237.723 25.5505 237.146 25.5505 236.44C25.5505 235.734 24.9729 235.157 24.2671 235.157C23.5612 235.157 22.9837 235.734 22.9837 236.44C22.9837 237.146 23.5612 237.723 24.2671 237.723ZM27.1547 239.007C27.1547 238.301 26.5772 237.723 25.8713 237.723C25.1654 237.723 24.5879 238.301 24.5879 239.007C24.5879 239.713 25.1654 240.29 25.8713 240.29C26.5772 240.29 27.1547 239.713 27.1547 239.007ZM27.4755 237.723C28.1814 237.723 28.7589 237.146 28.7589 236.44C28.7589 235.734 28.1814 235.157 27.4755 235.157C26.7697 235.157 26.1921 235.734 26.1921 236.44C26.1921 237.146 26.7697 237.723 27.4755 237.723ZM30.3632 239.007C30.3632 238.301 29.7856 237.723 29.0798 237.723C28.3739 237.723 27.7964 238.301 27.7964 239.007C27.7964 239.713 28.3739 240.29 29.0798 240.29C29.7856 240.29 30.3632 239.713 30.3632 239.007ZM31.9674 236.44C31.9674 235.734 31.3899 235.157 30.684 235.157C29.9781 235.157 29.4006 235.734 29.4006 236.44C29.4006 237.146 29.9781 237.723 30.684 237.723C31.3899 237.723 31.9674 237.146 31.9674 236.44Z" fill="#252834"/>
<path d="M52.7584 233.895V235.024H50.7358V241.082H49.5551V235.024H47.5222V233.895H52.7584ZM56.2977 235.948H57.4785L55.5072 241.246C55.0144 242.574 54.1793 243.204 53.002 243.135V242.098C53.3511 242.119 53.6317 242.043 53.8439 241.872C54.0561 241.708 54.2306 241.448 54.3675 241.092L54.4189 240.989L52.2422 235.948H53.4537L54.9835 239.675L56.2977 235.948ZM61.0774 235.815C61.7824 235.815 62.3847 236.078 62.8844 236.605C63.3841 237.125 63.6339 237.762 63.6339 238.515C63.6339 239.275 63.3841 239.915 62.8844 240.435C62.3847 240.955 61.7824 241.215 61.0774 241.215C60.2971 241.215 59.6982 240.928 59.2807 240.353V243.135H58.1718V235.948H59.2807V236.687C59.6982 236.106 60.2971 235.815 61.0774 235.815ZM59.7427 239.696C60.0507 240.004 60.4374 240.158 60.9029 240.158C61.3683 240.158 61.755 240.004 62.063 239.696C62.3711 239.381 62.5251 238.987 62.5251 238.515C62.5251 238.043 62.3711 237.652 62.063 237.344C61.755 237.03 61.3683 236.872 60.9029 236.872C60.4374 236.872 60.0507 237.03 59.7427 237.344C59.4347 237.652 59.2807 238.043 59.2807 238.515C59.2807 238.987 59.4347 239.381 59.7427 239.696ZM65.5116 238.987C65.5937 239.377 65.7819 239.678 66.0763 239.891C66.3706 240.096 66.7299 240.199 67.1543 240.199C67.743 240.199 68.1845 239.987 68.4788 239.562L69.3925 240.096C68.886 240.842 68.1365 241.215 67.1441 241.215C66.309 241.215 65.6348 240.962 65.1214 240.455C64.6081 239.942 64.3514 239.295 64.3514 238.515C64.3514 237.748 64.6047 237.108 65.1112 236.595C65.6177 236.075 66.2679 235.815 67.0619 235.815C67.8148 235.815 68.4309 236.078 68.91 236.605C69.396 237.132 69.639 237.772 69.639 238.525C69.639 238.642 69.6253 238.796 69.5979 238.987H65.5116ZM65.5013 238.084H68.5198C68.4446 237.666 68.27 237.351 67.9962 237.139C67.7293 236.927 67.4144 236.821 67.0516 236.821C66.641 236.821 66.2987 236.934 66.0249 237.16C65.7511 237.386 65.5766 237.694 65.5013 238.084ZM72.8529 241.082V240.158L75.3581 237.601C75.9672 236.992 76.2718 236.465 76.2718 236.02C76.2718 235.671 76.1657 235.401 75.9535 235.209C75.7482 235.01 75.4847 234.911 75.163 234.911C74.5606 234.911 74.1157 235.209 73.8283 235.804L72.8323 235.219C73.0582 234.74 73.3765 234.377 73.7872 234.131C74.1979 233.884 74.653 233.761 75.1527 233.761C75.7824 233.761 76.3232 233.96 76.7749 234.357C77.2267 234.754 77.4525 235.294 77.4525 235.979C77.4525 236.711 77.0453 237.492 76.2308 238.32L74.6086 239.942H77.586V241.082H72.8529Z" fill="#252834"/>
<rect x="136.841" y="227.456" width="30.1596" height="19.2508" rx="9.62541" fill="#252834"/>
<rect x="149.033" y="228.74" width="16.684" height="16.684" rx="8.34202" fill="white"/>
<path d="M26 26.12C27.1867 27.0933 27.78 28.3867 27.78 30C27.78 31.6133 27.1867 32.9133 26 33.9C24.8267 34.8733 23.2533 35.44 21.28 35.6V37.2H19.02V35.6C17.0333 35.44 15.4467 34.8733 14.26 33.9C13.0867 32.9133 12.5 31.6133 12.5 30C12.5 28.3867 13.0867 27.0933 14.26 26.12C15.4467 25.1333 17.0333 24.56 19.02 24.4V22.8H21.28V24.4C23.2533 24.56 24.8267 25.1333 26 26.12ZM14.8 30C14.8 31.04 15.16 31.8533 15.88 32.44C16.6133 33.0267 17.66 33.38 19.02 33.5V26.5C16.2067 26.7533 14.8 27.92 14.8 30ZM21.28 33.5C24.08 33.22 25.48 32.0533 25.48 30C25.48 27.92 24.08 26.7533 21.28 26.5V33.5ZM31.5891 25.1C31.3224 25.3667 31.0024 25.5 30.6291 25.5C30.2557 25.5 29.9291 25.3667 29.6491 25.1C29.3824 24.82 29.2491 24.4933 29.2491 24.12C29.2491 23.7467 29.3824 23.4267 29.6491 23.16C29.9157 22.88 30.2424 22.74 30.6291 22.74C31.0157 22.74 31.3424 22.88 31.6091 23.16C31.8757 23.4267 32.0091 23.7467 32.0091 24.12C32.0091 24.4933 31.8691 24.82 31.5891 25.1ZM29.5491 37V27H31.7091V37H29.5491ZM42.657 27V37H40.497V29.08H37.157V32.8C37.157 34.3867 36.8104 35.5133 36.117 36.18C35.4237 36.8467 34.437 37.12 33.157 37V34.98C33.7704 35.0867 34.2304 34.96 34.537 34.6C34.8437 34.24 34.997 33.6067 34.997 32.7V27H42.657ZM49.5341 30.4C50.6007 30.4 51.4741 30.7067 52.1541 31.32C52.8341 31.92 53.1741 32.7133 53.1741 33.7C53.1741 34.6733 52.8341 35.4667 52.1541 36.08C51.4741 36.6933 50.6007 37 49.5341 37H45.1741V27H47.3341V30.4H49.5341ZM49.5541 35.06C49.9807 35.06 50.3341 34.9333 50.6141 34.68C50.9074 34.4267 51.0541 34.1 51.0541 33.7C51.0541 33.2867 50.9074 32.96 50.6141 32.72C50.3341 32.4667 49.9807 32.34 49.5541 32.34H47.3341V35.06H49.5541ZM61.4859 27V29.08H58.2259V37H56.0659V29.08H52.7859V27H61.4859ZM68.6075 26.74C69.9808 26.74 71.1542 27.2533 72.1275 28.28C73.1008 29.2933 73.5875 30.5333 73.5875 32C73.5875 33.48 73.1008 34.7267 72.1275 35.74C71.1542 36.7533 69.9808 37.26 68.6075 37.26C67.0875 37.26 65.9208 36.7 65.1075 35.58V41H62.9475V27H65.1075V28.44C65.9208 27.3067 67.0875 26.74 68.6075 26.74ZM66.0075 34.3C66.6075 34.9 67.3608 35.2 68.2675 35.2C69.1742 35.2 69.9275 34.9 70.5275 34.3C71.1275 33.6867 71.4275 32.92 71.4275 32C71.4275 31.08 71.1275 30.32 70.5275 29.72C69.9275 29.1067 69.1742 28.8 68.2675 28.8C67.3608 28.8 66.6075 29.1067 66.0075 29.72C65.4075 30.32 65.1075 31.08 65.1075 32C65.1075 32.92 65.4075 33.6867 66.0075 34.3ZM83.4652 27H85.6252V37H83.4652V35.56C82.6518 36.6933 81.4852 37.26 79.9652 37.26C78.5918 37.26 77.4185 36.7533 76.4452 35.74C75.4718 34.7133 74.9852 33.4667 74.9852 32C74.9852 30.52 75.4718 29.2733 76.4452 28.26C77.4185 27.2467 78.5918 26.74 79.9652 26.74C81.4852 26.74 82.6518 27.3 83.4652 28.42V27ZM78.0452 34.3C78.6452 34.9 79.3985 35.2 80.3052 35.2C81.2118 35.2 81.9652 34.9 82.5652 34.3C83.1652 33.6867 83.4652 32.92 83.4652 32C83.4652 31.08 83.1652 30.32 82.5652 29.72C81.9652 29.1067 81.2118 28.8 80.3052 28.8C79.3985 28.8 78.6452 29.1067 78.0452 29.72C77.4452 30.32 77.1452 31.08 77.1452 32C77.1452 32.92 77.4452 33.6867 78.0452 34.3ZM96.7428 34.96H98.3828V39.68H96.2628V37H88.1428V27H90.3028V34.96H94.5828V27H96.7428V34.96ZM102.175 25.1C101.908 25.3667 101.588 25.5 101.215 25.5C100.842 25.5 100.515 25.3667 100.235 25.1C99.9683 24.82 99.835 24.4933 99.835 24.12C99.835 23.7467 99.9683 23.4267 100.235 23.16C100.502 22.88 100.828 22.74 101.215 22.74C101.602 22.74 101.928 22.88 102.195 23.16C102.462 23.4267 102.595 23.7467 102.595 24.12C102.595 24.4933 102.455 24.82 102.175 25.1ZM100.135 37V27H102.295V37H100.135ZM112.543 27V37H110.423V33.64H109.223L106.683 37H104.143L106.843 33.44C106.15 33.2133 105.59 32.8133 105.163 32.24C104.75 31.6667 104.543 31.0267 104.543 30.32C104.543 29.4 104.87 28.62 105.523 27.98C106.19 27.3267 107.043 27 108.083 27H112.543ZM108.203 31.78H110.423V28.96H108.203C107.763 28.96 107.396 29.0867 107.103 29.34C106.81 29.5933 106.663 29.94 106.663 30.38C106.663 30.8067 106.81 31.1467 107.103 31.4C107.396 31.6533 107.763 31.78 108.203 31.78Z" fill="#252834"/>
</g>
<defs>
<filter id="filter0_d_6949_33793" x="135.557" y="122.218" width="21.8171" height="21.8176" filterUnits="userSpaceOnUse" color-interpolation-filters="sRGB">
<feFlood flood-opacity="0" result="BackgroundImageFix"/>
<feColorMatrix in="SourceAlpha" type="matrix" values="0 0 0 0 0 0 0 0 0 0 0 0 0 0 0 0 0 0 127 0" result="hardAlpha"/>
<feOffset/>
<feGaussianBlur stdDeviation="1.28339"/>
<feComposite in2="hardAlpha" operator="out"/>
<feColorMatrix type="matrix" values="0 0 0 0 0 0 0 0 0 0 0 0 0 0 0 0 0 0 0.05 0"/>
<feBlend mode="normal" in2="BackgroundImageFix" result="effect1_dropShadow_6949_33793"/>
<feBlend mode="normal" in="SourceGraphic" in2="effect1_dropShadow_6949_33793" result="shape"/>
</filter>
<filter id="filter1_d_6949_33793" x="135.557" y="191.521" width="21.8171" height="21.8176" filterUnits="userSpaceOnUse" color-interpolation-filters="sRGB">
<feFlood flood-opacity="0" result="BackgroundImageFix"/>
<feColorMatrix in="SourceAlpha" type="matrix" values="0 0 0 0 0 0 0 0 0 0 0 0 0 0 0 0 0 0 127 0" result="hardAlpha"/>
<feOffset/>
<feGaussianBlur stdDeviation="1.28339"/>
<feComposite in2="hardAlpha" operator="out"/>
<feColorMatrix type="matrix" values="0 0 0 0 0 0 0 0 0 0 0 0 0 0 0 0 0 0 0.05 0"/>
<feBlend mode="normal" in2="BackgroundImageFix" result="effect1_dropShadow_6949_33793"/>
<feBlend mode="normal" in="SourceGraphic" in2="effect1_dropShadow_6949_33793" result="shape"/>
</filter>
<clipPath id="clip0_6949_33793">
<rect width="180" height="234" rx="15" fill="white"/>
</clipPath>
<clipPath id="clip1_6949_33793">
<rect width="15.4007" height="15.4007" fill="white" transform="translate(19.7754 160.077)"/>
</clipPath>
</defs>
</svg>
