<svg width="24" height="24" viewBox="0 0 24 24" fill="none" xmlns="http://www.w3.org/2000/svg">
<path d="M18.7085 7.20998C18.6155 7.11625 18.5049 7.04186 18.3831 6.99109C18.2612 6.94032 18.1305 6.91418 17.9985 6.91418C17.8665 6.91418 17.7358 6.94032 17.6139 6.99109C17.492 7.04186 17.3814 7.11625 17.2885 7.20998L9.83849 14.67L6.70849 11.53C6.61196 11.4367 6.49802 11.3634 6.37317 11.3142C6.24831 11.265 6.11499 11.2409 5.98081 11.2432C5.84663 11.2455 5.71422 11.2743 5.59114 11.3278C5.46806 11.3812 5.35672 11.4585 5.26348 11.555C5.17025 11.6515 5.09693 11.7654 5.04773 11.8903C4.99852 12.0152 4.97439 12.1485 4.97672 12.2827C4.97904 12.4168 5.00776 12.5493 5.06126 12.6723C5.11475 12.7954 5.19196 12.9067 5.28848 13L9.12849 16.84C9.22145 16.9337 9.33205 17.0081 9.45391 17.0589C9.57577 17.1096 9.70647 17.1358 9.83849 17.1358C9.9705 17.1358 10.1012 17.1096 10.2231 17.0589C10.3449 17.0081 10.4555 16.9337 10.5485 16.84L18.7085 8.67998C18.81 8.58634 18.891 8.47269 18.9464 8.34619C19.0018 8.21969 19.0304 8.08308 19.0304 7.94498C19.0304 7.80688 19.0018 7.67028 18.9464 7.54378C18.891 7.41728 18.81 7.30363 18.7085 7.20998Z" fill="black"/>
</svg>
