<svg width="8" height="8" viewBox="0 0 8 8" fill="none" xmlns="http://www.w3.org/2000/svg">
<path d="M1.12869 7.85648L7.02125 7.85648C7.13093 7.85409 7.23907 7.83006 7.33944 7.78577C7.54184 7.70125 7.70275 7.54034 7.78728 7.33794C7.83157 7.23756 7.8556 7.12943 7.85799 7.01974L7.85799 1.12719C7.85799 1.01731 7.83635 0.908499 7.7943 0.806981C7.75225 0.705463 7.69061 0.61322 7.61291 0.535521C7.45599 0.378602 7.24316 0.290445 7.02125 0.290446C6.79933 0.290445 6.5865 0.378602 6.42958 0.535522C6.27266 0.692442 6.1845 0.90527 6.1845 1.12719L6.1904 5.01038L1.71795 0.537934C1.56167 0.381654 1.34971 0.293856 1.12869 0.293856C0.907678 0.293856 0.695718 0.381654 0.539437 0.537934C0.383157 0.694215 0.295359 0.906175 0.295359 1.12719C0.295359 1.3482 0.383157 1.56016 0.539437 1.71645L5.01189 6.18889L1.12869 6.183C1.01868 6.18255 0.909674 6.20388 0.807952 6.24578C0.70623 6.28767 0.613809 6.34928 0.53602 6.42707C0.458231 6.50486 0.396614 6.59728 0.354724 6.699C0.312834 6.80072 0.291499 6.90973 0.29195 7.01974C0.291498 7.12975 0.312833 7.23876 0.354723 7.34048C0.396614 7.44221 0.458231 7.53463 0.53602 7.61242C0.613808 7.6902 0.706229 7.75182 0.807951 7.79371C0.909673 7.8356 1.01868 7.85694 1.12869 7.85648Z" fill="#1E558E"/>
</svg>
