<svg width="18" height="18" viewBox="0 0 18 18" fill="none" xmlns="http://www.w3.org/2000/svg">
<path d="M6.12869 12.8565L12.0212 12.8565C12.1309 12.8541 12.2391 12.8301 12.3394 12.7858C12.5418 12.7012 12.7028 12.5403 12.7873 12.3379C12.8316 12.2376 12.8556 12.1294 12.858 12.0197L12.858 6.12719C12.858 6.01731 12.8363 5.9085 12.7943 5.80698C12.7522 5.70546 12.6906 5.61322 12.6129 5.53552C12.456 5.3786 12.2432 5.29045 12.0212 5.29045C11.7993 5.29045 11.5865 5.3786 11.4296 5.53552C11.2727 5.69244 11.1845 5.90527 11.1845 6.12719L11.1904 10.0104L6.71795 5.53793C6.56167 5.38165 6.34971 5.29386 6.12869 5.29386C5.90768 5.29386 5.69572 5.38165 5.53944 5.53793C5.38316 5.69421 5.29536 5.90618 5.29536 6.12719C5.29536 6.3482 5.38316 6.56016 5.53944 6.71645L10.0119 11.1889L6.12869 11.183C6.01868 11.1826 5.90967 11.2039 5.80795 11.2458C5.70623 11.2877 5.61381 11.3493 5.53602 11.4271C5.45823 11.5049 5.39661 11.5973 5.35472 11.699C5.31283 11.8007 5.2915 11.9097 5.29195 12.0197C5.2915 12.1298 5.31283 12.2388 5.35472 12.3405C5.39661 12.4422 5.45823 12.5346 5.53602 12.6124C5.61381 12.6902 5.70623 12.7518 5.80795 12.7937C5.90967 12.8356 6.01868 12.8569 6.12869 12.8565Z" fill="white"/>
</svg>
