<svg width="141" height="200" viewBox="0 0 141 200" fill="none" xmlns="http://www.w3.org/2000/svg">
<rect width="180" height="200" rx="15" fill="#F4EFD5"/>
<path d="M20.433 145.018C20.8583 145.179 21.1883 145.425 21.423 145.755C21.6577 146.085 21.775 146.474 21.775 146.921C21.775 147.566 21.533 148.098 21.049 148.516C20.5723 148.927 19.927 149.132 19.113 149.132C18.3797 149.132 17.793 148.967 17.353 148.637C16.913 148.307 16.6087 147.893 16.44 147.394L17.1 147.02C17.1953 147.409 17.4007 147.739 17.716 148.01C18.0387 148.274 18.5043 148.406 19.113 148.406C19.7143 148.406 20.18 148.27 20.51 147.999C20.84 147.72 21.005 147.361 21.005 146.921C21.005 146.481 20.851 146.125 20.543 145.854C20.2423 145.575 19.8243 145.436 19.289 145.436H18.409V144.71H19.014C19.5347 144.71 19.949 144.578 20.257 144.314C20.565 144.05 20.719 143.709 20.719 143.291C20.719 142.88 20.5687 142.547 20.268 142.29C19.9747 142.026 19.5713 141.894 19.058 141.894C18.112 141.894 17.4887 142.297 17.188 143.104L16.55 142.73C16.7407 142.261 17.0413 141.883 17.452 141.597C17.87 141.311 18.4053 141.168 19.058 141.168C19.784 141.168 20.3707 141.373 20.818 141.784C21.2653 142.187 21.489 142.693 21.489 143.302C21.489 144.072 21.137 144.644 20.433 145.018ZM27.7197 143.5H28.4457V149H27.7197V147.922C27.2137 148.729 26.4731 149.132 25.4977 149.132C24.7131 149.132 24.0421 148.853 23.4847 148.296C22.9347 147.739 22.6597 147.057 22.6597 146.25C22.6597 145.443 22.9347 144.761 23.4847 144.204C24.0421 143.647 24.7131 143.368 25.4977 143.368C26.4731 143.368 27.2137 143.771 27.7197 144.578V143.5ZM24.0127 147.801C24.4307 148.219 24.9441 148.428 25.5527 148.428C26.1614 148.428 26.6747 148.219 27.0927 147.801C27.5107 147.376 27.7197 146.859 27.7197 146.25C27.7197 145.641 27.5107 145.128 27.0927 144.71C26.6747 144.285 26.1614 144.072 25.5527 144.072C24.9441 144.072 24.4307 144.285 24.0127 144.71C23.5947 145.128 23.3857 145.641 23.3857 146.25C23.3857 146.859 23.5947 147.376 24.0127 147.801ZM32.9309 143.368C33.7156 143.368 34.3829 143.647 34.9329 144.204C35.4902 144.761 35.7689 145.443 35.7689 146.25C35.7689 147.057 35.4902 147.739 34.9329 148.296C34.3829 148.853 33.7156 149.132 32.9309 149.132C31.9556 149.132 31.2149 148.729 30.7089 147.922V151.2H29.9829V143.5H30.7089V144.578C31.2149 143.771 31.9556 143.368 32.9309 143.368ZM31.3359 147.801C31.7539 148.219 32.2672 148.428 32.8759 148.428C33.4846 148.428 33.9979 148.219 34.4159 147.801C34.8339 147.376 35.0429 146.859 35.0429 146.25C35.0429 145.641 34.8339 145.128 34.4159 144.71C33.9979 144.285 33.4846 144.072 32.8759 144.072C32.2672 144.072 31.7539 144.285 31.3359 144.71C30.9179 145.128 30.7089 145.641 30.7089 146.25C30.7089 146.859 30.9179 147.376 31.3359 147.801ZM40.7212 143.5V149H39.9952V146.888H39.0492L37.3552 149H36.4312L38.1692 146.866C37.7292 146.8 37.3662 146.617 37.0802 146.316C36.7942 146.015 36.6512 145.645 36.6512 145.205C36.6512 144.706 36.8272 144.299 37.1792 143.984C37.5385 143.661 37.9749 143.5 38.4882 143.5H40.7212ZM38.4882 146.206H39.9952V144.204H38.4882C38.1802 144.204 37.9162 144.296 37.6962 144.479C37.4835 144.662 37.3772 144.904 37.3772 145.205C37.3772 145.506 37.4835 145.748 37.6962 145.931C37.9162 146.114 38.1802 146.206 38.4882 146.206ZM46.8812 148.296H47.6512V150.474H46.9252V149H42.4372V150.474H41.7112V148.296H42.3822C42.7562 147.805 42.9432 147.112 42.9432 146.217V143.5H46.8812V148.296ZM43.2622 148.296H46.1552V144.204H43.6692V146.217C43.6692 147.06 43.5335 147.753 43.2622 148.296ZM55.1735 149H54.2935L52.0495 146.349V149H51.3235V146.349L49.0795 149H48.1995L50.6635 146.14L48.3095 143.5H49.1895L51.3235 145.942V143.5H52.0495V145.942L54.1835 143.5H55.0635L52.7095 146.14L55.1735 149ZM58.2622 143.368C59.0762 143.368 59.7325 143.658 60.2312 144.237C60.7372 144.809 60.9902 145.487 60.9902 146.272C60.9902 146.353 60.9828 146.466 60.9682 146.613H56.1392C56.2125 147.17 56.4472 147.614 56.8432 147.944C57.2465 148.267 57.7415 148.428 58.3282 148.428C58.7462 148.428 59.1055 148.344 59.4062 148.175C59.7142 147.999 59.9452 147.772 60.0992 147.493L60.7372 147.867C60.4952 148.256 60.1652 148.564 59.7472 148.791C59.3292 149.018 58.8525 149.132 58.3172 149.132C57.4518 149.132 56.7478 148.861 56.2052 148.318C55.6625 147.775 55.3912 147.086 55.3912 146.25C55.3912 145.429 55.6588 144.743 56.1942 144.193C56.7295 143.643 57.4188 143.368 58.2622 143.368ZM58.2622 144.072C57.6902 144.072 57.2098 144.244 56.8212 144.589C56.4398 144.926 56.2125 145.366 56.1392 145.909H60.2422C60.1688 145.33 59.9452 144.879 59.5712 144.556C59.1972 144.233 58.7608 144.072 58.2622 144.072ZM66.039 143.5H66.765V149H66.039V146.602H62.871V149H62.145V143.5H62.871V145.898H66.039V143.5ZM72.9093 148.307C72.3519 148.857 71.6699 149.132 70.8633 149.132C70.0566 149.132 69.3709 148.857 68.8063 148.307C68.2489 147.75 67.9703 147.064 67.9703 146.25C67.9703 145.436 68.2489 144.754 68.8063 144.204C69.3709 143.647 70.0566 143.368 70.8633 143.368C71.6699 143.368 72.3519 143.647 72.9093 144.204C73.4739 144.754 73.7563 145.436 73.7563 146.25C73.7563 147.064 73.4739 147.75 72.9093 148.307ZM69.3233 147.801C69.7413 148.219 70.2546 148.428 70.8633 148.428C71.4719 148.428 71.9853 148.219 72.4033 147.801C72.8213 147.376 73.0303 146.859 73.0303 146.25C73.0303 145.641 72.8213 145.128 72.4033 144.71C71.9853 144.285 71.4719 144.072 70.8633 144.072C70.2546 144.072 69.7413 144.285 69.3233 144.71C68.9053 145.128 68.6963 145.641 68.6963 146.25C68.6963 146.859 68.9053 147.376 69.3233 147.801Z" fill="#252834"/>
<circle cx="38" cy="46" r="22" fill="white" fill-opacity="0.28"/>
<path d="M29.2145 110.729C31.4449 111.147 33.2709 112.109 34.6927 113.615C36.1145 115.12 36.8255 117.03 36.8255 119.344C36.8255 122.187 35.8497 124.432 33.8982 126.076C31.9467 127.721 29.577 128.544 26.7891 128.544C24.5588 128.544 22.5794 128.042 20.8509 127.038C19.1224 126.007 17.8958 124.529 17.1709 122.605L20.4327 120.682C21.297 123.386 23.4158 124.738 26.7891 124.738C28.6012 124.738 30.0788 124.264 31.2218 123.316C32.3649 122.368 32.9364 121.044 32.9364 119.344C32.9364 117.643 32.3649 116.319 31.2218 115.371C30.0788 114.395 28.6012 113.907 26.7891 113.907H25.7855L24.2382 111.524L31.0127 102.365H18.0073V98.7273H35.5709V102.156L29.2145 110.729ZM51.1854 110.729C53.4157 111.147 55.2418 112.109 56.6636 113.615C58.0854 115.12 58.7963 117.03 58.7963 119.344C58.7963 122.187 57.8206 124.432 55.8691 126.076C53.9176 127.721 51.5479 128.544 48.76 128.544C46.5297 128.544 44.5503 128.042 42.8218 127.038C41.0933 126.007 39.8666 124.529 39.1418 122.605L42.4036 120.682C43.2679 123.386 45.3866 124.738 48.76 124.738C50.5721 124.738 52.0497 124.264 53.1927 123.316C54.3357 122.368 54.9072 121.044 54.9072 119.344C54.9072 117.643 54.3357 116.319 53.1927 115.371C52.0497 114.395 50.5721 113.907 48.76 113.907H47.7563L46.2091 111.524L52.9836 102.365H39.9782V98.7273H57.5418V102.156L51.1854 110.729ZM85.9727 128H83.1567L75.1567 120.288V128H73.0447V112H75.1567V119.072L82.7727 112H85.6527L77.3967 119.68L85.9727 128ZM91.4492 120C90.5532 120 89.7852 119.691 89.1452 119.072C88.5265 118.432 88.2172 117.664 88.2172 116.768C88.2172 115.893 88.5265 115.147 89.1452 114.528C89.7852 113.909 90.5532 113.6 91.4492 113.6C92.3239 113.6 93.0705 113.909 93.6892 114.528C94.3079 115.147 94.6172 115.893 94.6172 116.768C94.6172 117.664 94.3079 118.432 93.6892 119.072C93.0705 119.691 92.3239 120 91.4492 120ZM111.187 116.384C112.275 116.853 113.139 117.568 113.779 118.528C114.44 119.467 114.771 120.544 114.771 121.76C114.771 123.488 114.163 124.96 112.947 126.176C111.731 127.392 110.259 128 108.531 128H98.7709V105.6H107.795C109.459 105.6 110.878 106.197 112.051 107.392C113.224 108.565 113.811 109.973 113.811 111.616C113.811 113.707 112.936 115.296 111.187 116.384ZM107.795 107.712H101.011V115.52H107.795C108.84 115.52 109.726 115.147 110.451 114.4C111.198 113.632 111.571 112.704 111.571 111.616C111.571 110.549 111.198 109.632 110.451 108.864C109.726 108.096 108.84 107.712 107.795 107.712ZM108.531 125.888C109.64 125.888 110.579 125.493 111.347 124.704C112.136 123.893 112.531 122.912 112.531 121.76C112.531 120.629 112.136 119.659 111.347 118.848C110.579 118.037 109.64 117.632 108.531 117.632H101.011V125.888H108.531ZM129.502 112V114.048H123.838V128H121.726V114.048H116.062V112H129.502Z" fill="#252834"/>
<path d="M43.9145 45.2389L38.0764 53.7668C37.7824 54.1905 37.0904 54.0003 37.0904 53.49L37.0818 48.612C37.0818 48.0498 36.6061 47.6 36.018 47.5914L32.5325 47.5482C32.1087 47.5395 31.8578 47.0984 32.0914 46.7611L37.9294 38.2332C38.2235 37.8094 38.9154 37.9997 38.9154 38.51L38.924 43.388C38.924 43.9502 39.3997 44.3999 39.9878 44.4086L43.4734 44.4518C43.8885 44.4518 44.1393 44.9016 43.9145 45.2389Z" stroke="#252834" stroke-width="1.66667" stroke-linecap="round" stroke-linejoin="round"/>
</svg>
