<svg width="180" height="200" viewBox="0 0 180 200" fill="none" xmlns="http://www.w3.org/2000/svg">
<rect width="180" height="200" rx="15" fill="#EFD9DF"/>
<path d="M21.17 141.3V142.026H17.65V149H16.88V141.3H21.17ZM25.7969 143.5H26.5229V149H25.7969V147.922C25.2909 148.729 24.5502 149.132 23.5749 149.132C22.7902 149.132 22.1192 148.853 21.5619 148.296C21.0119 147.739 20.7369 147.057 20.7369 146.25C20.7369 145.443 21.0119 144.761 21.5619 144.204C22.1192 143.647 22.7902 143.368 23.5749 143.368C24.5502 143.368 25.2909 143.771 25.7969 144.578V143.5ZM22.0899 147.801C22.5079 148.219 23.0212 148.428 23.6299 148.428C24.2385 148.428 24.7519 148.219 25.1699 147.801C25.5879 147.376 25.7969 146.859 25.7969 146.25C25.7969 145.641 25.5879 145.128 25.1699 144.71C24.7519 144.285 24.2385 144.072 23.6299 144.072C23.0212 144.072 22.5079 144.285 22.0899 144.71C21.6719 145.128 21.4629 145.641 21.4629 146.25C21.4629 146.859 21.6719 147.376 22.0899 147.801ZM30.898 146.173C31.536 146.415 31.855 146.855 31.855 147.493C31.855 147.948 31.6754 148.336 31.316 148.659C30.964 148.974 30.458 149.132 29.798 149.132C28.6907 149.132 27.9647 148.692 27.62 147.812L28.236 147.449C28.4634 148.102 28.984 148.428 29.798 148.428C30.2234 148.428 30.5497 148.336 30.777 148.153C31.0117 147.97 31.129 147.735 31.129 147.449C31.129 147.192 31.0337 146.983 30.843 146.822C30.6524 146.661 30.3957 146.58 30.073 146.58H29.27V145.876H29.853C30.1684 145.876 30.414 145.799 30.59 145.645C30.7734 145.484 30.865 145.264 30.865 144.985C30.865 144.721 30.7587 144.505 30.546 144.336C30.3334 144.16 30.0474 144.072 29.688 144.072C28.9987 144.072 28.5404 144.347 28.313 144.897L27.708 144.545C28.0747 143.76 28.7347 143.368 29.688 143.368C30.2674 143.368 30.7294 143.522 31.074 143.83C31.4187 144.131 31.591 144.501 31.591 144.941C31.591 145.506 31.36 145.916 30.898 146.173ZM38.2715 149.132C37.4428 149.132 36.7535 148.857 36.2035 148.307C35.6535 147.75 35.3785 147.064 35.3785 146.25C35.3785 145.436 35.6535 144.754 36.2035 144.204C36.7535 143.647 37.4428 143.368 38.2715 143.368C38.8141 143.368 39.3018 143.5 39.7345 143.764C40.1671 144.021 40.4825 144.369 40.6805 144.809L40.0865 145.15C39.9398 144.82 39.7015 144.56 39.3715 144.369C39.0488 144.171 38.6821 144.072 38.2715 144.072C37.6628 144.072 37.1495 144.285 36.7315 144.71C36.3135 145.128 36.1045 145.641 36.1045 146.25C36.1045 146.859 36.3135 147.376 36.7315 147.801C37.1495 148.219 37.6628 148.428 38.2715 148.428C38.6821 148.428 39.0488 148.333 39.3715 148.142C39.6941 147.944 39.9471 147.68 40.1305 147.35L40.7355 147.702C40.5081 148.142 40.1745 148.49 39.7345 148.747C39.2945 149.004 38.8068 149.132 38.2715 149.132ZM46.3331 148.307C45.7758 148.857 45.0938 149.132 44.2871 149.132C43.4804 149.132 42.7948 148.857 42.2301 148.307C41.6728 147.75 41.3941 147.064 41.3941 146.25C41.3941 145.436 41.6728 144.754 42.2301 144.204C42.7948 143.647 43.4804 143.368 44.2871 143.368C45.0938 143.368 45.7758 143.647 46.3331 144.204C46.8978 144.754 47.1801 145.436 47.1801 146.25C47.1801 147.064 46.8978 147.75 46.3331 148.307ZM42.7471 147.801C43.1651 148.219 43.6784 148.428 44.2871 148.428C44.8958 148.428 45.4091 148.219 45.8271 147.801C46.2451 147.376 46.4541 146.859 46.4541 146.25C46.4541 145.641 46.2451 145.128 45.8271 144.71C45.4091 144.285 44.8958 144.072 44.2871 144.072C43.6784 144.072 43.1651 144.285 42.7471 144.71C42.3291 145.128 42.1201 145.641 42.1201 146.25C42.1201 146.859 42.3291 147.376 42.7471 147.801ZM47.8502 149V148.307L50.6222 145.513C51.4142 144.721 51.8102 144.043 51.8102 143.478C51.8102 142.987 51.6562 142.605 51.3482 142.334C51.0475 142.055 50.6845 141.916 50.2592 141.916C49.4672 141.916 48.8915 142.279 48.5322 143.005L47.8832 142.62C48.1252 142.143 48.4552 141.784 48.8732 141.542C49.2912 141.293 49.7532 141.168 50.2592 141.168C50.8752 141.168 51.4142 141.377 51.8762 141.795C52.3455 142.206 52.5802 142.767 52.5802 143.478C52.5802 143.925 52.4555 144.354 52.2062 144.765C51.9568 145.176 51.6048 145.608 51.1502 146.063L48.9502 148.252H52.7452V149H47.8502Z" fill="#252834"/>
<circle cx="38" cy="46" r="22" fill="white" fill-opacity="0.28"/>
<path d="M17.5055 128V124.822L27.8345 114.284C30.5945 111.524 31.9745 109.154 31.9745 107.175C31.9745 105.53 31.4727 104.247 30.4691 103.327C29.4655 102.407 28.2388 101.947 26.7891 101.947C24.0291 101.947 22.0218 103.258 20.7673 105.878L17.5055 103.955C18.4255 102.059 19.6939 100.623 21.3109 99.6473C22.9558 98.6715 24.7679 98.1836 26.7473 98.1836C29.2006 98.1836 31.3333 98.9921 33.1455 100.609C34.9576 102.226 35.8636 104.401 35.8636 107.133C35.8636 110.088 34.1212 113.308 30.6364 116.793L23.1509 124.236H36.4073V128H17.5055ZM50.8587 110.729C53.089 111.147 54.9151 112.109 56.3369 113.615C57.7587 115.12 58.4696 117.03 58.4696 119.344C58.4696 122.187 57.4939 124.432 55.5424 126.076C53.5908 127.721 51.2211 128.544 48.4333 128.544C46.203 128.544 44.2236 128.042 42.4951 127.038C40.7666 126.007 39.5399 124.529 38.8151 122.605L42.0769 120.682C42.9411 123.386 45.0599 124.738 48.4333 124.738C50.2454 124.738 51.723 124.264 52.866 123.316C54.009 122.368 54.5805 121.044 54.5805 119.344C54.5805 117.643 54.009 116.319 52.866 115.371C51.723 114.395 50.2454 113.907 48.4333 113.907H47.4296L45.8824 111.524L52.6569 102.365H39.6514V98.7273H57.2151V102.156L50.8587 110.729ZM80.174 128.384C77.7633 128.384 75.758 127.584 74.158 125.984C72.558 124.363 71.758 122.368 71.758 120C71.758 117.632 72.558 115.648 74.158 114.048C75.758 112.427 77.7633 111.616 80.174 111.616C81.7527 111.616 83.1713 112 84.43 112.768C85.6887 113.515 86.606 114.528 87.182 115.808L85.454 116.8C85.0273 115.84 84.334 115.083 83.374 114.528C82.4353 113.952 81.3687 113.664 80.174 113.664C78.4033 113.664 76.91 114.283 75.694 115.52C74.478 116.736 73.87 118.229 73.87 120C73.87 121.771 74.478 123.275 75.694 124.512C76.91 125.728 78.4033 126.336 80.174 126.336C81.3687 126.336 82.4353 126.059 83.374 125.504C84.3127 124.928 85.0487 124.16 85.582 123.2L87.342 124.224C86.6807 125.504 85.71 126.517 84.43 127.264C83.15 128.011 81.7313 128.384 80.174 128.384ZM103.626 125.984C102.005 127.584 100.021 128.384 97.674 128.384C95.3273 128.384 93.3326 127.584 91.69 125.984C90.0686 124.363 89.258 122.368 89.258 120C89.258 117.632 90.0686 115.648 91.69 114.048C93.3326 112.427 95.3273 111.616 97.674 111.616C100.021 111.616 102.005 112.427 103.626 114.048C105.269 115.648 106.09 117.632 106.09 120C106.09 122.368 105.269 124.363 103.626 125.984ZM93.194 124.512C94.41 125.728 95.9033 126.336 97.674 126.336C99.4446 126.336 100.938 125.728 102.154 124.512C103.37 123.275 103.978 121.771 103.978 120C103.978 118.229 103.37 116.736 102.154 115.52C100.938 114.283 99.4446 113.664 97.674 113.664C95.9033 113.664 94.41 114.283 93.194 115.52C91.978 116.736 91.37 118.229 91.37 120C91.37 121.771 91.978 123.275 93.194 124.512ZM108.039 128V125.984L116.103 117.856C118.407 115.552 119.559 113.579 119.559 111.936C119.559 110.507 119.111 109.397 118.215 108.608C117.341 107.797 116.285 107.392 115.047 107.392C112.743 107.392 111.069 108.448 110.023 110.56L108.135 109.44C108.839 108.053 109.799 107.008 111.015 106.304C112.231 105.579 113.575 105.216 115.047 105.216C116.839 105.216 118.407 105.824 119.751 107.04C121.117 108.235 121.799 109.867 121.799 111.936C121.799 113.237 121.437 114.485 120.711 115.68C119.986 116.875 118.962 118.133 117.639 119.456L111.239 125.824H122.279V128H108.039Z" fill="#252834"/>
<path d="M32.5 51H37.5M36.5 54H41.5M41.5 51H44.5M45.5 43C45.5 45.7614 43.2614 48 40.5 48C39.2865 48 37.5 48 37.5 48C37.5 48 35.5942 48 34.5 48C32.2909 48 30.5 46.2091 30.5 44C30.5 41.7909 32.2909 40 34.5 40C35.1206 40 35.7081 40.1413 36.2323 40.3935C37.1109 38.9579 38.6936 38 40.5 38C43.2614 38 45.5 40.2386 45.5 43Z" stroke="#252834" stroke-width="1.66667" stroke-linecap="round" stroke-linejoin="round"/>
</svg>
