<svg width="16" height="22" viewBox="0 0 16 22" fill="none" xmlns="http://www.w3.org/2000/svg">
<path d="M7.99936 21.5C6.49651 21.4999 5.02836 21.0483 3.78527 20.2037C2.54217 19.3592 1.58146 18.1606 1.02771 16.7635C0.473952 15.3664 0.35269 13.8352 0.679644 12.3683C1.0066 10.9015 1.76669 9.56668 2.86136 8.537C4.20336 7.274 7.49936 5 6.99936 0C12.9994 4 15.9994 8 9.99936 14C10.9994 14 12.4994 14 14.9994 11.53C15.2694 12.303 15.4994 13.134 15.4994 14C15.4994 15.9891 14.7092 17.8968 13.3027 19.3033C11.8961 20.7098 9.98849 21.5 7.99936 21.5Z" fill="#252834"/>
</svg>
