<svg width="102" height="102" viewBox="0 0 102 102" fill="none" xmlns="http://www.w3.org/2000/svg">
<path d="M93.7465 22.9722C90.2027 17.5334 85.6539 12.8208 80.3439 9.08703C74.6698 5.15543 68.2472 2.43415 61.4758 1.09262C52.9922 -0.682492 44.1979 -0.2897 35.9063 2.23468H35.8584C34.7927 2.69046 33.9145 3.49622 33.3688 4.51879C33.0472 4.9904 32.822 5.52101 32.7064 6.08003C32.5908 6.63905 32.5869 7.21543 32.695 7.77595V7.81706C32.867 8.41428 33.1566 8.97109 33.5469 9.45474C33.9372 9.9384 34.4202 10.3391 34.9676 10.6334C35.6083 10.9446 36.311 11.107 37.0232 11.1085C37.5386 11.1092 38.0505 11.0235 38.5375 10.8549C44.611 8.9305 51.0448 8.42398 57.3447 9.37429C63.6445 10.3246 69.6426 12.7064 74.8783 16.3368C79.256 19.4207 82.9919 23.3267 85.8781 27.8373C90.4129 34.8335 92.7722 43.017 92.658 51.3537C92.5437 59.6903 89.9611 67.8061 85.2363 74.6754C82.1533 79.0498 78.2594 82.7919 73.766 85.6985C66.7798 90.2589 58.5955 92.639 50.2534 92.5361C41.9112 92.4332 33.7881 89.852 26.9165 85.1207C18.0473 78.8028 11.9024 69.3577 9.72023 58.6889C8.61242 53.2051 8.65831 47.5507 9.85499 42.0856C10.9856 36.5467 12.5113 31.8071 16.2114 26.8186L28.4239 37.1679C25.2675 42.3722 24.0545 48.5255 24.9997 54.5384C25.9448 60.5513 28.9872 66.0356 33.5881 70.0204C33.6155 70.0409 36.4431 72.5192 36.4431 72.5192L44.8939 62.7523L56.7913 72.9943C57.5057 73.5536 58.4079 73.8164 59.3108 73.7283C60.2138 73.6402 61.0482 73.2079 61.641 72.5211C62.2338 71.8342 62.5395 70.9456 62.4947 70.0394C62.4499 69.1332 62.058 68.279 61.4004 67.654L49.5236 57.4258L57.2115 48.5406L69.0655 58.746C69.415 59.0626 69.8242 59.3061 70.2692 59.4621C70.7143 59.6181 71.186 59.6835 71.6567 59.6543C72.1273 59.6251 72.5874 59.502 73.0097 59.2923C73.4321 59.0825 73.8081 58.7904 74.1158 58.433C74.4235 58.0756 74.6565 57.6602 74.8011 57.2114C74.9458 56.7625 74.9991 56.2893 74.958 55.8195C74.9169 55.3497 74.7821 54.8929 74.5617 54.476C74.3413 54.0591 74.0397 53.6905 73.6746 53.392L61.8298 43.198L70.1915 33.5339L67.3251 31.0511C62.7934 27.1295 57.037 24.9095 51.0458 24.7728C45.0546 24.636 39.203 26.5911 34.4971 30.3019L19.0116 17.0929C18.0249 16.2409 16.8509 15.3683 15.6746 15.3683C14.9118 15.3683 14.2152 15.727 13.603 16.4327L13.5231 16.5264C13.3153 16.7708 12.7123 17.4766 12.646 17.5474L12.4953 17.7141L12.1778 18.0705C11.9794 18.2835 11.7934 18.5077 11.6205 18.742C11.0825 19.3334 10.5842 19.9599 10.1291 20.6172L9.63801 21.3025C5.54137 26.9479 2.65728 33.38 1.16714 40.1943C-0.323003 47.0085 -0.386945 54.0574 0.979344 60.8976C2.23419 67.502 4.79403 73.7896 8.50898 79.3922C12.2239 84.9949 17.0193 89.8 22.6144 93.5263C28.2094 97.2525 34.4916 99.8249 41.0931 101.093C47.6946 102.361 54.4828 102.299 61.0601 100.911C67.4858 99.6157 73.6082 97.1155 79.1037 93.5422L80.0584 92.9232C85.1038 89.465 89.2424 85.1572 92.7963 80.1915C96.7377 74.5214 99.4633 68.097 100.802 61.3225C102.261 54.7839 102.389 48.0182 101.177 41.4293C99.9645 34.8403 97.4375 28.5631 93.7465 22.9722Z" fill="white"/>
</svg>
