<svg width="180" height="200" viewBox="0 0 180 200" fill="none" xmlns="http://www.w3.org/2000/svg">
<rect width="180" height="200" rx="15" fill="#E1DCEC"/>
<path d="M22.38 141.3V149H21.61V142.026H17.65V149H16.88V141.3H22.38ZM28.6407 148.307C28.0834 148.857 27.4014 149.132 26.5947 149.132C25.7881 149.132 25.1024 148.857 24.5377 148.307C23.9804 147.75 23.7017 147.064 23.7017 146.25C23.7017 145.436 23.9804 144.754 24.5377 144.204C25.1024 143.647 25.7881 143.368 26.5947 143.368C27.4014 143.368 28.0834 143.647 28.6407 144.204C29.2054 144.754 29.4877 145.436 29.4877 146.25C29.4877 147.064 29.2054 147.75 28.6407 148.307ZM25.0547 147.801C25.4727 148.219 25.9861 148.428 26.5947 148.428C27.2034 148.428 27.7167 148.219 28.1347 147.801C28.5527 147.376 28.7617 146.859 28.7617 146.25C28.7617 145.641 28.5527 145.128 28.1347 144.71C27.7167 144.285 27.2034 144.072 26.5947 144.072C25.9861 144.072 25.4727 144.285 25.0547 144.71C24.6367 145.128 24.4277 145.641 24.4277 146.25C24.4277 146.859 24.6367 147.376 25.0547 147.801ZM35.1078 148.296H35.8778V150.474H35.1518V149H30.6638V150.474H29.9378V148.296H30.6088C30.9828 147.805 31.1698 147.112 31.1698 146.217V143.5H35.1078V148.296ZM31.4888 148.296H34.3818V144.204H31.8958V146.217C31.8958 147.06 31.7601 147.753 31.4888 148.296ZM41.3702 148.307C40.8129 148.857 40.1309 149.132 39.3242 149.132C38.5175 149.132 37.8319 148.857 37.2672 148.307C36.7099 147.75 36.4312 147.064 36.4312 146.25C36.4312 145.436 36.7099 144.754 37.2672 144.204C37.8319 143.647 38.5175 143.368 39.3242 143.368C40.1309 143.368 40.8129 143.647 41.3702 144.204C41.9349 144.754 42.2172 145.436 42.2172 146.25C42.2172 147.064 41.9349 147.75 41.3702 148.307ZM37.7842 147.801C38.2022 148.219 38.7155 148.428 39.3242 148.428C39.9329 148.428 40.4462 148.219 40.8642 147.801C41.2822 147.376 41.4912 146.859 41.4912 146.25C41.4912 145.641 41.2822 145.128 40.8642 144.71C40.4462 144.285 39.9329 144.072 39.3242 144.072C38.7155 144.072 38.2022 144.285 37.7842 144.71C37.3662 145.128 37.1572 145.641 37.1572 146.25C37.1572 146.859 37.3662 147.376 37.7842 147.801ZM47.7273 143.5V149H47.0013V144.204H44.5153V146.657C44.5153 147.574 44.3393 148.204 43.9873 148.549C43.6426 148.894 43.1659 149.044 42.5573 149V148.318C42.9753 148.362 43.2833 148.263 43.4813 148.021C43.6866 147.779 43.7893 147.324 43.7893 146.657V143.5H47.7273ZM53.9951 143.5H54.7211V149H53.9951V147.922C53.4891 148.729 52.7485 149.132 51.7731 149.132C50.9885 149.132 50.3175 148.853 49.7601 148.296C49.2101 147.739 48.9351 147.057 48.9351 146.25C48.9351 145.443 49.2101 144.761 49.7601 144.204C50.3175 143.647 50.9885 143.368 51.7731 143.368C52.7485 143.368 53.4891 143.771 53.9951 144.578V143.5ZM50.2881 147.801C50.7061 148.219 51.2195 148.428 51.8281 148.428C52.4368 148.428 52.9501 148.219 53.3681 147.801C53.7861 147.376 53.9951 146.859 53.9951 146.25C53.9951 145.641 53.7861 145.128 53.3681 144.71C52.9501 144.285 52.4368 144.072 51.8281 144.072C51.2195 144.072 50.7061 144.285 50.2881 144.71C49.8701 145.128 49.6611 145.641 49.6611 146.25C49.6611 146.859 49.8701 147.376 50.2881 147.801ZM60.1523 143.5H60.8783V149H60.1523V146.602H56.9843V149H56.2583V143.5H56.9843V145.898H60.1523V143.5ZM67.0226 148.307C66.4652 148.857 65.7832 149.132 64.9766 149.132C64.1699 149.132 63.4842 148.857 62.9196 148.307C62.3622 147.75 62.0836 147.064 62.0836 146.25C62.0836 145.436 62.3622 144.754 62.9196 144.204C63.4842 143.647 64.1699 143.368 64.9766 143.368C65.7832 143.368 66.4652 143.647 67.0226 144.204C67.5872 144.754 67.8696 145.436 67.8696 146.25C67.8696 147.064 67.5872 147.75 67.0226 148.307ZM63.4366 147.801C63.8546 148.219 64.3679 148.428 64.9766 148.428C65.5852 148.428 66.0986 148.219 66.5166 147.801C66.9346 147.376 67.1436 146.859 67.1436 146.25C67.1436 145.641 66.9346 145.128 66.5166 144.71C66.0986 144.285 65.5852 144.072 64.9766 144.072C64.3679 144.072 63.8546 144.285 63.4366 144.71C63.0186 145.128 62.8096 145.641 62.8096 146.25C62.8096 146.859 63.0186 147.376 63.4366 147.801Z" fill="#252834"/>
<circle cx="38" cy="46" r="22" fill="white" fill-opacity="0.28"/>
<path d="M29.2145 111.729C31.4449 112.147 33.2709 113.109 34.6927 114.615C36.1145 116.12 36.8255 118.03 36.8255 120.344C36.8255 123.187 35.8497 125.432 33.8982 127.076C31.9467 128.721 29.577 129.544 26.7891 129.544C24.5588 129.544 22.5794 129.042 20.8509 128.038C19.1224 127.007 17.8958 125.529 17.1709 123.605L20.4327 121.682C21.297 124.386 23.4158 125.738 26.7891 125.738C28.6012 125.738 30.0788 125.264 31.2218 124.316C32.3649 123.368 32.9364 122.044 32.9364 120.344C32.9364 118.643 32.3649 117.319 31.2218 116.371C30.0788 115.395 28.6012 114.907 26.7891 114.907H25.7855L24.2382 112.524L31.0127 103.365H18.0073V99.7273H35.5709V103.156L29.2145 111.729ZM42.6225 129.46C41.8698 129.46 41.2286 129.195 40.6989 128.665C40.1692 128.136 39.9043 127.495 39.9043 126.742C39.9043 125.989 40.1692 125.348 40.6989 124.818C41.2286 124.288 41.8698 124.024 42.6225 124.024C43.4031 124.024 44.0443 124.288 44.5461 124.818C45.0758 125.348 45.3407 125.989 45.3407 126.742C45.3407 127.495 45.0758 128.136 44.5461 128.665C44.0443 129.195 43.4031 129.46 42.6225 129.46ZM60.9457 111.729C63.176 112.147 65.0021 113.109 66.4239 114.615C67.8457 116.12 68.5566 118.03 68.5566 120.344C68.5566 123.187 67.5809 125.432 65.6294 127.076C63.6779 128.721 61.3082 129.544 58.5203 129.544C56.29 129.544 54.3106 129.042 52.5821 128.038C50.8536 127.007 49.6269 125.529 48.9021 123.605L52.1639 121.682C53.0282 124.386 55.1469 125.738 58.5203 125.738C60.3324 125.738 61.81 125.264 62.953 124.316C64.096 123.368 64.6675 122.044 64.6675 120.344C64.6675 118.643 64.096 117.319 62.953 116.371C61.81 115.395 60.3324 114.907 58.5203 114.907H57.5166L55.9694 112.524L62.7439 103.365H49.7385V99.7273H67.3021V103.156L60.9457 111.729ZM71.4934 129V125.822L81.8225 115.284C84.5825 112.524 85.9625 110.154 85.9625 108.175C85.9625 106.53 85.4607 105.247 84.457 104.327C83.4534 103.407 82.2267 102.947 80.777 102.947C78.017 102.947 76.0097 104.258 74.7552 106.878L71.4934 104.955C72.4134 103.059 73.6819 101.623 75.2988 100.647C76.9437 99.6715 78.7558 99.1836 80.7352 99.1836C83.1885 99.1836 85.3213 99.9921 87.1334 101.609C88.9455 103.226 89.8516 105.401 89.8516 108.133C89.8516 111.088 88.1091 114.308 84.6243 117.793L77.1388 125.236H90.3952V129H71.4934ZM93.5459 129V125.822L103.875 115.284C106.635 112.524 108.015 110.154 108.015 108.175C108.015 106.53 107.513 105.247 106.51 104.327C105.506 103.407 104.279 102.947 102.83 102.947C100.07 102.947 98.0623 104.258 96.8078 106.878L93.5459 104.955C94.4659 103.059 95.7344 101.623 97.3514 100.647C98.9962 99.6715 100.808 99.1836 102.788 99.1836C105.241 99.1836 107.374 99.9921 109.186 101.609C110.998 103.226 111.904 105.401 111.904 108.133C111.904 111.088 110.162 114.308 106.677 117.793L99.1914 125.236H112.448V129H93.5459ZM139.716 129H136.9L128.9 121.288V129H126.788V113H128.9V120.072L136.516 113H139.396L131.14 120.68L139.716 129ZM158.28 113V129H156.168V116.232L150.568 125.32H150.312L144.712 116.232V129H142.6V113H145.032L150.44 121.768L155.848 113H158.28Z" fill="#252834"/>
<path d="M38.0003 37.6667C36.906 37.6667 35.8223 37.8822 34.8113 38.301C33.8003 38.7198 32.8816 39.3336 32.1078 40.1075C30.545 41.6703 29.667 43.7899 29.667 46C29.667 48.2102 30.545 50.3298 32.1078 51.8926C32.8816 52.6664 33.8003 53.2802 34.8113 53.699C35.8223 54.1178 36.906 54.3334 38.0003 54.3334C40.2105 54.3334 42.3301 53.4554 43.8929 51.8926C45.4557 50.3298 46.3337 48.2102 46.3337 46C46.3337 44.9057 46.1181 43.822 45.6993 42.811C45.2805 41.7999 44.6667 40.8813 43.8929 40.1075C43.1191 39.3336 42.2004 38.7198 41.1894 38.301C40.1783 37.8822 39.0947 37.6667 38.0003 37.6667ZM38.0003 39.3334C39.7684 39.3334 41.4641 40.0357 42.7144 41.286C43.9646 42.5362 44.667 44.2319 44.667 46C44.667 48 43.8337 49.75 42.417 51C41.2503 49.9167 39.667 49.3334 38.0003 49.3334C36.3337 49.3334 34.8337 49.9167 33.5837 51C32.167 49.75 31.3337 48 31.3337 46C31.3337 44.2319 32.036 42.5362 33.2863 41.286C34.5365 40.0357 36.2322 39.3334 38.0003 39.3334ZM39.667 40.9084C39.3503 40.9167 39.0503 41.125 38.917 41.45L37.842 44.1417L37.7587 44.3334C37.167 44.4417 36.6753 44.8334 36.4503 45.3834C36.1087 46.2417 36.5253 47.2084 37.3837 47.55C38.242 47.8917 39.2087 47.475 39.5503 46.6167C39.767 46.0667 39.667 45.4334 39.3087 44.9667L39.392 44.75L40.467 42.075L40.4753 42.05C40.642 41.625 40.4337 41.1417 40.0087 40.9667C39.9003 40.925 39.792 40.9084 39.667 40.9084ZM36.3337 41C36.1126 41 35.9007 41.0878 35.7444 41.2441C35.5881 41.4004 35.5003 41.6123 35.5003 41.8334C35.5003 42.0544 35.5881 42.2663 35.7444 42.4226C35.9007 42.5789 36.1126 42.6667 36.3337 42.6667C36.5547 42.6667 36.7666 42.5789 36.9229 42.4226C37.0792 42.2663 37.167 42.0544 37.167 41.8334C37.167 41.6123 37.0792 41.4004 36.9229 41.2441C36.7666 41.0878 36.5547 41 36.3337 41ZM33.8337 43.5C33.6126 43.5 33.4007 43.5878 33.2444 43.7441C33.0881 43.9004 33.0003 44.1123 33.0003 44.3334C33.0003 44.5544 33.0881 44.7663 33.2444 44.9226C33.4007 45.0789 33.6126 45.1667 33.8337 45.1667C34.0547 45.1667 34.2666 45.0789 34.4229 44.9226C34.5792 44.7663 34.667 44.5544 34.667 44.3334C34.667 44.1123 34.5792 43.9004 34.4229 43.7441C34.2666 43.5878 34.0547 43.5 33.8337 43.5ZM42.167 43.5C41.946 43.5 41.734 43.5878 41.5777 43.7441C41.4215 43.9004 41.3337 44.1123 41.3337 44.3334C41.3337 44.5544 41.4215 44.7663 41.5777 44.9226C41.734 45.0789 41.946 45.1667 42.167 45.1667C42.388 45.1667 42.6 45.0789 42.7562 44.9226C42.9125 44.7663 43.0003 44.5544 43.0003 44.3334C43.0003 44.1123 42.9125 43.9004 42.7562 43.7441C42.6 43.5878 42.388 43.5 42.167 43.5Z" fill="#252834"/>
</svg>
