<svg width="38" height="38" viewBox="0 0 38 38" fill="none" xmlns="http://www.w3.org/2000/svg">
<path d="M18.0221 33.3C17.1603 33.3 16.2917 33.2019 15.4163 33.0055C14.5409 32.8091 13.6466 32.5286 12.7336 32.164C13.047 29.004 13.9611 26.0529 15.4758 23.3107C16.9905 20.5685 18.9362 18.1528 21.3127 16.0635C18.44 17.526 15.9522 19.4586 13.8493 21.8613C11.7464 24.2639 10.2777 27.0061 9.44303 30.0878C9.33856 30.0094 9.24037 29.9248 9.14844 29.8339L8.85542 29.5394C7.62797 28.3119 6.69407 26.9408 6.05371 25.4261C5.41334 23.9114 5.09368 22.3314 5.09473 20.6861C5.09473 18.9102 5.44729 17.2126 6.15242 15.5935C6.85755 13.9743 7.8369 12.5379 9.09046 11.2843C11.2059 9.16895 13.948 7.7916 17.317 7.15228C20.6859 6.51296 25.4129 6.45394 31.4979 6.97521C31.968 13.2169 31.8896 17.9768 31.2629 21.2549C30.6361 24.5329 29.2781 27.2161 27.1888 29.3043C25.9091 30.584 24.479 31.5701 22.8985 32.2627C21.3179 32.9553 19.6925 33.3011 18.0221 33.3Z" fill="#12C344"/>
</svg>
